<svg xmlns="http://www.w3.org/2000/svg" width="1080" height="1080" viewBox="0 0 1080 1080" role="img" aria-labelledby="title description">
  <title id="title">PoE ulanishi</title><desc id="description">PoE switchdan Ethernet kabeli orqali IP kameraga ma’lumot va quvvat uzatilishini ko‘rsatuvchi original sxema.</desc>
  <rect width="1080" height="1080" fill="#07162D"/>
  <circle cx="945" cy="125" r="230" fill="#0A2142"/><circle cx="980" cy="940" r="310" fill="#091E3A"/>
  <rect x="72" y="60" width="10" height="64" rx="5" fill="#20D6E8"/>
  <text x="105" y="92" font-family="DejaVu Sans, Arial, sans-serif" font-size="36" font-weight="900" fill="#F7FBFF" text-anchor="start">WST</text><text x="105" y="124" font-family="DejaVu Sans, Arial, sans-serif" font-size="22" font-weight="800" fill="#20D6E8" text-anchor="start">ACADEMY</text>
  <rect x="668" y="64" width="340" height="62" rx="28" fill="#0C3158" stroke="#1C4B78" stroke-width="2"/><text x="838" y="104" font-family="DejaVu Sans, Arial, sans-serif" font-size="22" font-weight="750" fill="#B7C7DA" text-anchor="middle">ULANISH • 2/5</text>
  <text x="72" y="245" font-family="DejaVu Sans, Arial, sans-serif" font-size="60" font-weight="820" fill="#F7FBFF" text-anchor="start">PoE: quvvat va ma’lumot</text><text x="72" y="323" font-family="DejaVu Sans, Arial, sans-serif" font-size="60" font-weight="820" fill="#F7FBFF" text-anchor="start">bitta Ethernet kabelida</text>
  <rect x="72" y="430" width="936" height="92" rx="28" fill="#0C3158" stroke="#1C4B78" stroke-width="2"/>
  <text x="540" y="488" font-family="DejaVu Sans, Arial, sans-serif" font-size="31" font-weight="800" fill="#20D6E8" text-anchor="middle">PoE SWITCH</text>
  <g transform="translate(90 625)"><rect x="0" y="0" width="250" height="120" rx="28" fill="#132E55" stroke="#42E6A4" stroke-width="2"/><rect x="30" y="38" width="36" height="28" rx="4" fill="#07162D" stroke="#42E6A4" stroke-width="3" transform="translate(0 0)"/><rect x="30" y="38" width="36" height="28" rx="4" fill="#07162D" stroke="#42E6A4" stroke-width="3" transform="translate(48 0)"/><rect x="30" y="38" width="36" height="28" rx="4" fill="#07162D" stroke="#42E6A4" stroke-width="3" transform="translate(96 0)"/><rect x="30" y="38" width="36" height="28" rx="4" fill="#07162D" stroke="#42E6A4" stroke-width="3" transform="translate(144 0)"/><circle cx="51" cy="88" r="6" fill="#42E6A4"/><circle cx="99" cy="88" r="6" fill="#42E6A4"/></g><g transform="translate(725 615)"><rect x="0" y="0" width="190" height="105" rx="28" fill="#132E55" stroke="#20D6E8" stroke-width="2"/><circle cx="70" cy="52" r="32" fill="#07162D" stroke="#20D6E8" stroke-width="8"/><circle cx="70" cy="52" r="12" fill="#3A86FF"/><path d="M190 28 L244 6 L244 98 L190 77 Z" fill="#132E55" stroke="#20D6E8" stroke-width="6"/><path d="M102 105 L130 148 H58 L84 105" fill="#132E55" stroke="#20D6E8" stroke-width="6"/></g><line x1="350" y1="675" x2="714" y2="675" stroke="#42E6A4" stroke-width="14" stroke-linecap="round"/><path d="M505 620 L462 690 H513 L485 752 L580 657 H528 L558 620 Z" fill="#FFB547"/><text x="530" y="790" font-family="DejaVu Sans, Arial, sans-serif" font-size="30" font-weight="800" fill="#B7C7DA" text-anchor="middle">DATA + QUVVAT</text>
  <line x1="72" y1="972" x2="1008" y2="972" stroke="#284D78" stroke-width="2" stroke-linecap="round"/>
  <text x="72" y="1020" font-family="DejaVu Sans, Arial, sans-serif" font-size="28" font-weight="750" fill="#F7FBFF" text-anchor="start">@wst_academy_qabul_bot</text>
  <text x="1008" y="1020" font-family="DejaVu Sans, Arial, sans-serif" font-size="24" font-weight="700" fill="#B7C7DA" text-anchor="end">AMALIY BILIM • REAL USKUNA</text>
  </svg>
