<svg xmlns="http://www.w3.org/2000/svg" width="1080" height="1080" viewBox="0 0 1080 1080" role="img" aria-labelledby="title description">
  <title id="title">NVR parol xavfsizligi</title><desc id="description">NVR xavfsizligi uchun noyob parol, cheklangan admin va tiklash ma’lumotlarini ifodalovchi original sxema.</desc>
  <rect width="1080" height="1080" fill="#07162D"/>
  <circle cx="945" cy="125" r="230" fill="#0A2142"/><circle cx="980" cy="940" r="310" fill="#091E3A"/>
  <rect x="72" y="60" width="10" height="64" rx="5" fill="#20D6E8"/>
  <text x="105" y="92" font-family="DejaVu Sans, Arial, sans-serif" font-size="36" font-weight="900" fill="#F7FBFF" text-anchor="start">WST</text><text x="105" y="124" font-family="DejaVu Sans, Arial, sans-serif" font-size="22" font-weight="800" fill="#20D6E8" text-anchor="start">ACADEMY</text>
  <rect x="668" y="64" width="340" height="62" rx="28" fill="#0C3158" stroke="#1C4B78" stroke-width="2"/><text x="838" y="104" font-family="DejaVu Sans, Arial, sans-serif" font-size="22" font-weight="750" fill="#B7C7DA" text-anchor="middle">XAVFSIZLIK • 3/5</text>
  <text x="72" y="245" font-family="DejaVu Sans, Arial, sans-serif" font-size="60" font-weight="820" fill="#F7FBFF" text-anchor="start">NVR paroli — obyekt</text><text x="72" y="323" font-family="DejaVu Sans, Arial, sans-serif" font-size="60" font-weight="820" fill="#F7FBFF" text-anchor="start">xavfsizligi uchun muhim</text>
  <rect x="72" y="430" width="936" height="92" rx="28" fill="#0C3158" stroke="#1C4B78" stroke-width="2"/>
  <text x="540" y="488" font-family="DejaVu Sans, Arial, sans-serif" font-size="31" font-weight="800" fill="#20D6E8" text-anchor="middle">NOYOB PAROL</text>
  <g transform="translate(160 590)"><path d="M100 0 L190 34 V108 C190 172 150 216 100 242 C50 216 10 172 10 108 V34 Z" fill="#132E55" stroke="#20D6E8" stroke-width="8"/><rect x="62" y="94" width="76" height="70" rx="15" fill="#07162D" stroke="#42E6A4" stroke-width="7"/><path d="M78 94 V72 A22 22 0 0 1 122 72 V94" fill="none" stroke="#42E6A4" stroke-width="10"/><circle cx="100" cy="126" r="10" fill="#42E6A4"/></g><g transform="translate(645 640)"><rect x="0" y="0" width="250" height="130" rx="28" fill="#132E55" stroke="#3A86FF" stroke-width="2"/><rect x="30" y="30" width="125" height="70" rx="12" fill="#07162D" stroke="#35577F" stroke-width="3"/><circle cx="197" cy="48" r="9" fill="#42E6A4"/><circle cx="223" cy="48" r="9" fill="#20D6E8"/><rect x="186" y="78" width="47" height="13" rx="6" fill="#35577F"/></g><line x1="360" y1="710" x2="632" y2="710" stroke="#20D6E8" stroke-width="9" stroke-linecap="round" stroke-dasharray="16 14"/><circle cx="505" cy="710" r="62" fill="#07162D" stroke="#42E6A4" stroke-width="7"/><text x="505" y="724" font-family="DejaVu Sans, Arial, sans-serif" font-size="38" font-weight="800" fill="#42E6A4" text-anchor="middle">••••</text>
  <line x1="72" y1="972" x2="1008" y2="972" stroke="#284D78" stroke-width="2" stroke-linecap="round"/>
  <text x="72" y="1020" font-family="DejaVu Sans, Arial, sans-serif" font-size="28" font-weight="750" fill="#F7FBFF" text-anchor="start">@wst_academy_qabul_bot</text>
  <text x="1008" y="1020" font-family="DejaVu Sans, Arial, sans-serif" font-size="24" font-weight="700" fill="#B7C7DA" text-anchor="end">AMALIY BILIM • REAL USKUNA</text>
  </svg>
