<svg xmlns="http://www.w3.org/2000/svg" width="1080" height="1080" viewBox="0 0 1080 1080" role="img" aria-labelledby="title description">
  <title id="title">Arxiv hajmini hisoblash</title><desc id="description">8 kamera, 4 Mbps bitrate va 14 kun uchun taxminiy 4.84 TB arxiv hisobini ko‘rsatuvchi original sxema.</desc>
  <rect width="1080" height="1080" fill="#07162D"/>
  <circle cx="945" cy="125" r="230" fill="#0A2142"/><circle cx="980" cy="940" r="310" fill="#091E3A"/>
  <rect x="72" y="60" width="10" height="64" rx="5" fill="#20D6E8"/>
  <text x="105" y="92" font-family="DejaVu Sans, Arial, sans-serif" font-size="36" font-weight="900" fill="#F7FBFF" text-anchor="start">WST</text><text x="105" y="124" font-family="DejaVu Sans, Arial, sans-serif" font-size="22" font-weight="800" fill="#20D6E8" text-anchor="start">ACADEMY</text>
  <rect x="668" y="64" width="340" height="62" rx="28" fill="#0C3158" stroke="#1C4B78" stroke-width="2"/><text x="838" y="104" font-family="DejaVu Sans, Arial, sans-serif" font-size="22" font-weight="750" fill="#B7C7DA" text-anchor="middle">HISOB-KITOB • 4/5</text>
  <text x="72" y="245" font-family="DejaVu Sans, Arial, sans-serif" font-size="60" font-weight="820" fill="#F7FBFF" text-anchor="start">Arxiv hajmi bitrate va</text><text x="72" y="323" font-family="DejaVu Sans, Arial, sans-serif" font-size="60" font-weight="820" fill="#F7FBFF" text-anchor="start">saqlash kuniga bog‘liq</text>
  <rect x="72" y="430" width="936" height="92" rx="28" fill="#0C3158" stroke="#1C4B78" stroke-width="2"/>
  <text x="540" y="488" font-family="DejaVu Sans, Arial, sans-serif" font-size="31" font-weight="800" fill="#20D6E8" text-anchor="middle">8 KAMERA</text>
  <g transform="translate(120 585)"><rect x="0" y="0" width="220" height="250" rx="28" fill="#132E55" stroke="#3A86FF" stroke-width="2"/><circle cx="110" cy="108" r="72" fill="#07162D" stroke="#3A86FF" stroke-width="8"/><circle cx="110" cy="108" r="18" fill="#20D6E8"/><path d="M110 108 L166 72" stroke="#B7C7DA" stroke-width="10" stroke-linecap="round"/><rect x="45" y="205" width="130" height="12" rx="6" fill="#35577F"/></g><text x="465" y="675" font-family="DejaVu Sans, Arial, sans-serif" font-size="31" font-weight="750" fill="#F7FBFF" text-anchor="start">8 × 4 × 86 400 × 14</text><line x1="465" y1="710" x2="875" y2="710" stroke="#20D6E8" stroke-width="5" stroke-linecap="round"/><text x="670" y="755" font-family="DejaVu Sans, Arial, sans-serif" font-size="31" font-weight="750" fill="#B7C7DA" text-anchor="middle">8 × 1 000 000</text><rect x="450" y="800" width="440" height="95" rx="28" fill="#20D6E8" stroke="#20D6E8" stroke-width="2"/><text x="670" y="862" font-family="DejaVu Sans, Arial, sans-serif" font-size="44" font-weight="850" fill="#07162D" text-anchor="middle">≈ 4.84 TB</text>
  <line x1="72" y1="972" x2="1008" y2="972" stroke="#284D78" stroke-width="2" stroke-linecap="round"/>
  <text x="72" y="1020" font-family="DejaVu Sans, Arial, sans-serif" font-size="28" font-weight="750" fill="#F7FBFF" text-anchor="start">@wst_academy_qabul_bot</text>
  <text x="1008" y="1020" font-family="DejaVu Sans, Arial, sans-serif" font-size="24" font-weight="700" fill="#B7C7DA" text-anchor="end">AMALIY BILIM • REAL USKUNA</text>
  </svg>
